<svg width="1200" height="300" viewBox="0 0 1200 300" xmlns="http://www.w3.org/2000/svg">
  <!-- Background -->
  <rect width="1200" height="300" fill="#1A1A1A"/>

  <!-- Logo (left side) -->
  <g transform="translate(60, 40) scale(1.8)">
    <g transform="scale(1.05)" fill="none" stroke="white" stroke-linecap="round">
      <path d="M10 62 C10 28, 30 8, 40 8 C50 8, 70 28, 70 62" stroke-width="3"/>
      <path d="M22 62 C22 40, 32 22, 40 20 C48 22, 58 40, 58 62" stroke-width="4"/>
      <line x1="40" y1="20" x2="40" y2="63" stroke-width="2"/>
    </g>
  </g>

  <!-- OpenDB Text -->
  <g transform="translate(280, 150)">
    <text x="0" y="0" font-family="'SF Pro Display', 'Helvetica Neue', Arial, sans-serif" font-size="72" fill="white" font-weight="700">
      Open<tspan fill="#888">DB</tspan>
    </text>
  </g>

  <!-- Decorative line -->
  <line x1="280" y1="165" x2="750" y2="165" stroke="#333" stroke-width="1"/>

  <!-- Tagline -->
  <g transform="translate(280, 195)">
    <text x="0" y="0" font-family="'SF Pro Text', 'Helvetica Neue', Arial, sans-serif" font-size="22" fill="#888" font-weight="400">
      The file database built for AI agents
    </text>
  </g>

  <!-- Version badge -->
  <g transform="translate(280, 230)">
    <rect x="0" y="0" width="52" height="22" rx="4" fill="#888" opacity="0.15"/>
    <text x="26" y="15" font-family="'SF Mono', 'Fira Code', monospace" font-size="12" fill="#888" text-anchor="middle" font-weight="600">v1.3</text>
  </g>
</svg>
